<svg width="130" height="62" viewBox="0 0 130 62" fill="none" xmlns="http://www.w3.org/2000/svg">
<path d="M13.6622 14.4443C13.6622 11.6581 11.5666 9.69987 8.99245 9.69987C6.41829 9.69987 4.32268 11.6911 4.32268 14.4443C4.32268 17.1645 6.41829 19.1888 8.99245 19.1888C11.5692 19.1862 13.6622 17.2305 13.6622 14.4443ZM13.699 22.737V20.5806C12.429 22.0741 10.5385 23.0011 8.27463 23.0011C3.57068 23.0011 0 19.3513 0 14.4443C0 9.56777 3.70741 5.85449 8.3798 5.85449C10.578 5.85449 12.4317 6.78408 13.7016 8.24196V6.15165H17.9244V22.737H13.699Z" fill="black"/>
<path d="M38.4361 19.0541C36.9584 19.0541 36.5482 18.5232 36.5482 17.1314V9.76826H39.2617V6.15154H36.5482V2.10555H32.2203V6.15154H26.646V5.14322C26.646 3.74884 27.1956 3.218 28.7075 3.218H29.6567V0H27.5742C24.0035 0 22.3207 1.1277 22.3207 4.57683V6.149H19.9175V9.76576H22.3207V22.7343H26.6487V9.76576H32.2229V17.8933C32.2229 21.2764 33.5613 22.7369 37.0636 22.7369H39.2959V19.0541H38.4361Z" fill="black"/>
<path d="M53.9573 12.9507C53.6496 10.7943 51.8275 9.50154 49.7003 9.50154C47.5705 9.50154 45.8194 10.7613 45.375 12.9507H53.9573ZM45.3382 15.5388C45.6485 17.9923 47.468 19.3867 49.7687 19.3867C51.5882 19.3867 52.9976 18.5561 53.8205 17.2303H58.251C57.2203 20.7455 53.9573 23.0009 49.6662 23.0009C44.481 23.0009 40.842 19.4857 40.842 14.4771C40.842 9.46854 44.6888 5.85181 49.7713 5.85181C54.8881 5.85181 58.5955 9.50164 58.5955 14.4771C58.5955 14.8429 58.5613 15.2061 58.4929 15.5388H45.3382Z" fill="black"/>
<path d="M86.1119 14.4443C86.1119 11.7571 84.0163 9.69987 81.4421 9.69987C78.868 9.69987 76.7723 11.6911 76.7723 14.4443C76.7723 17.1645 78.868 19.1888 81.4421 19.1888C84.0163 19.1862 86.1119 17.1315 86.1119 14.4443ZM72.5128 6.15165H76.7355V8.30799C78.0055 6.78153 79.8934 5.85449 82.1599 5.85449C86.7955 5.85449 90.4346 9.53727 90.4346 14.4113C90.4346 19.2878 86.7271 23.0036 82.0574 23.0036C79.8934 23.0036 78.1081 22.1731 76.8723 20.7813V29.5616H72.5128V6.15165Z" fill="black"/>
<path d="M105.656 14.4443C105.656 11.6581 103.563 9.69987 100.986 9.69987C98.412 9.69987 96.3164 11.6911 96.3164 14.4443C96.3164 17.1645 98.412 19.1888 100.986 19.1888C103.563 19.1862 105.656 17.2305 105.656 14.4443ZM105.693 22.737V20.5806C104.423 22.0741 102.532 23.0011 100.268 23.0011C95.5644 23.0011 91.9938 19.3513 91.9938 14.4443C91.9938 9.56777 95.7012 5.85449 100.371 5.85449C102.569 5.85449 104.423 6.78408 105.693 8.24196V6.15165H109.916V22.737H105.693Z" fill="black"/>
<path d="M64.9007 7.77716C64.9007 7.77716 65.9762 5.85449 68.6081 5.85449C69.7335 5.85449 70.4619 6.22784 70.4619 6.22784V10.4593C70.4619 10.4593 68.8737 9.51187 67.4144 9.70237C65.9551 9.89287 65.0322 11.1882 65.0375 12.9204V22.7395H60.678V6.15419H64.9007V7.77716Z" fill="black"/>
<path d="M129.638 6.15161L118.976 29.5081H114.48L118.666 20.4789L111.588 6.15161H116.684L120.825 15.7243L125.074 6.15161H129.638Z" fill="black"/>
<path d="M77.3273 36.7757L66.7572 30.8832C63.6542 29.1536 59.7762 31.315 59.7762 34.7768V35.3813C59.7762 35.9274 60.0782 36.4328 60.5672 36.7046L62.5632 37.817C63.1492 38.1447 63.8802 37.7358 63.8802 37.083V35.5794C63.8802 34.8276 64.7222 34.3578 65.3952 34.7337L74.5502 39.8388C75.2242 40.2147 75.2242 41.1544 74.5502 41.5278L65.3952 46.6329C64.7222 47.0088 63.8802 46.5389 63.8802 45.7871V44.987C63.8802 41.5252 60.0022 39.3613 56.8972 41.0934L46.3273 46.9859C43.2243 48.7156 43.2243 53.0435 46.3273 54.7731L56.8972 60.6656C59.9992 62.3952 63.8802 60.2338 63.8802 56.772V56.1675C63.8802 55.6214 63.5782 55.1185 63.0892 54.8442L61.0932 53.7292C60.5072 53.4016 59.7762 53.8105 59.7762 54.4633V55.9669C59.7762 56.7187 58.9352 57.1885 58.2612 56.8126L49.1062 51.7075C48.4332 51.3316 48.4332 50.3919 49.1062 50.016L58.2612 44.9108C58.9352 44.5349 59.7762 45.0048 59.7762 45.7566V46.5567C59.7762 50.0185 63.6542 52.1825 66.7572 50.4503L77.3273 44.5578C80.4303 42.8332 80.4303 38.5053 77.3273 36.7757Z" fill="black"/>
</svg>
