<svg width="37" height="10" viewBox="0 0 37 10" fill="none" xmlns="http://www.w3.org/2000/svg">
<path d="M5.01001 5.32H7.32301L6.16501 2.66M26.103 2.977H22.365V4.207H26.031V5.591H22.356V6.976H26.177V7.981C26.8 7.211 27.507 6.515 28.202 5.746L28.909 4.976C27.975 3.972 27.039 2.896 26.105 1.901V2.978L26.103 2.977Z" fill="#1478BE"/>
<path d="M37 0H31.395L30.067 1.4L28.822 0H15.734L14.717 2.416L13.627 0H4.047L0 9.5H4.826L5.449 7.944H6.849L7.472 9.5H28.74L30.067 8.017L31.395 9.5H37L32.64 4.833L37 0ZM19.315 8.1H17.758V2.883L15.423 8.1H14.093L11.76 2.883L11.676 8.1H8.48L7.857 6.544H4.587L3.882 8.1H2.17L5.054 1.328H7.474L10.119 7.561V1.33H12.765L14.872 5.84L16.74 1.33H19.315V8.1ZM34.042 8.1H32.018L29.994 5.84L27.971 8.1H20.81V1.328H28.28L30.075 3.505L32.099 1.328H34.124L31.01 4.75L34.042 8.1Z" fill="#1478BE"/>
</svg>
