<svg width="801" height="341" viewBox="0 0 801 341" fill="none" xmlns="http://www.w3.org/2000/svg">
<path d="M151.796 43.8903C161.106 31.9202 167.756 15.9601 165.761 0C151.796 0.665004 135.17 9.31006 125.195 20.6151C116.55 30.5902 108.57 47.2153 110.565 62.5104C126.525 64.5054 141.821 55.8603 151.796 43.8903ZM165.761 66.5004C143.151 65.1704 123.865 79.1355 113.225 79.1355C102.585 79.1355 85.9602 67.1654 68.005 67.1654C44.7299 67.8304 23.4498 80.4655 11.4797 101.746C-12.4605 143.641 4.82965 205.486 28.7698 239.401C40.0749 256.027 54.04 274.647 71.9951 273.982C89.2852 273.317 95.9352 262.677 116.55 262.677C137.165 262.677 143.151 273.982 161.771 273.317C180.391 272.652 192.361 256.692 203.666 239.401C216.966 220.116 222.286 201.496 222.286 200.831C221.621 200.166 185.711 186.866 185.711 145.636C185.046 111.056 213.641 94.4306 214.971 93.7656C199.676 69.8254 174.406 67.1654 165.761 66.5004Z" fill="black"/>
<path d="M361.272 19.2852C410.482 19.2852 444.397 53.2004 444.397 101.746C444.397 150.956 409.817 184.871 359.942 184.871H306.076V270.657H266.841V19.2852H361.272ZM306.076 152.286H350.632C384.547 152.286 403.832 133.666 403.832 102.411C403.832 70.4905 384.547 52.5354 350.632 52.5354H305.411V152.286H306.076ZM454.372 219.451C454.372 187.531 478.978 167.581 522.868 164.921L573.408 162.261V148.296C573.408 127.681 559.443 115.711 536.833 115.711C514.888 115.711 501.588 126.351 498.263 142.311H462.352C464.347 109.061 492.943 84.4556 538.163 84.4556C582.718 84.4556 611.313 107.731 611.313 144.971V271.322H575.403V241.397H574.738C564.098 262.012 540.823 274.647 516.883 274.647C479.643 274.647 454.372 252.037 454.372 219.451ZM573.408 202.826V188.196L528.188 190.856C505.578 192.186 492.943 202.161 492.943 218.121C492.943 234.081 506.243 244.722 526.193 244.722C552.793 244.722 573.408 226.766 573.408 202.826ZM644.564 339.152V308.562C647.224 309.227 653.874 309.227 656.534 309.227C673.824 309.227 683.134 301.912 689.119 283.292C689.119 282.627 692.444 271.987 692.444 271.987L625.943 88.4456H666.509L713.059 238.071H713.724L760.274 88.4456H800.175L731.679 281.962C715.719 326.517 697.764 340.482 659.859 340.482C657.199 339.817 647.889 339.817 644.564 339.152Z" fill="black"/>
</svg>
