<svg width="734" height="534" viewBox="0 0 734 534" fill="none" xmlns="http://www.w3.org/2000/svg">
<path d="M700 200H33.3334M333.333 333.333H166.667M33.3334 140V393.333C33.3334 430.67 33.3334 449.34 40.5997 463.6C46.991 476.144 57.1897 486.343 69.734 492.733C83.9947 500 102.663 500 140 500H593.333C630.67 500 649.34 500 663.6 492.733C676.143 486.343 686.343 476.144 692.733 463.6C700 449.34 700 430.67 700 393.333V140C700 102.663 700 83.9948 692.733 69.7342C686.343 57.1902 676.143 46.9915 663.6 40.5998C649.34 33.3335 630.67 33.3335 593.333 33.3335H140C102.663 33.3335 83.9947 33.3335 69.734 40.5998C57.19 46.9912 46.991 57.1898 40.5997 69.7342C33.3334 83.9948 33.3334 102.663 33.3334 140Z" stroke="#CCCCCC" stroke-width="66.6667" stroke-linecap="round" stroke-linejoin="round"/>
</svg>
