<svg width="674" height="109" viewBox="0 0 674 109" fill="none" xmlns="http://www.w3.org/2000/svg">
<path d="M356.632 0C388.363 0 414.088 24.1846 414.088 54.0605V54.0944C414.088 83.9703 388.363 108.189 356.632 108.189C324.897 108.189 299.173 83.9703 299.173 54.0944V54.0605C299.173 24.1846 324.897 0 356.632 0Z" fill="#F47216"/>
<path d="M266.397 0.697266C275.459 0.697266 283.061 2.52803 292.314 6.94342V30.2788C283.551 22.2142 275.95 18.8388 265.896 18.8388C246.137 18.8388 230.601 34.2388 230.601 53.7629C230.601 74.3516 245.658 88.8347 266.876 88.8347C276.428 88.8347 283.887 85.6347 292.314 77.7003V101.048C282.731 105.295 274.968 106.971 265.896 106.971C233.817 106.971 208.89 83.7947 208.89 53.9075C208.889 24.3403 234.48 0.697266 266.397 0.697266Z" fill="black"/>
<path d="M166.794 1.33936C178.636 1.33936 189.47 5.15577 198.529 12.6153L187.506 26.203C182.017 20.4122 176.828 17.9701 170.518 17.9701C161.437 17.9701 154.825 22.8368 154.825 29.2399C154.825 34.7312 158.535 37.6378 171.177 42.0419C195.141 50.2912 202.243 57.607 202.243 73.7609C202.243 93.446 186.883 107.15 164.993 107.15C148.961 107.15 137.308 101.206 127.601 87.7948L141.209 75.4553C146.061 84.285 154.155 89.0173 164.204 89.0173C173.602 89.0173 180.56 82.9137 180.56 74.6748C180.56 70.404 178.451 66.7435 174.244 64.1537C172.125 62.9281 167.928 61.1004 159.681 58.363C139.894 51.6573 133.107 44.4891 133.107 30.4799C133.106 13.8378 147.684 1.33936 166.794 1.33936Z" fill="black"/>
<path d="M407.535 3.11279H430.547L459.351 71.4123L488.527 3.11279H511.364L464.705 107.406H453.367L407.535 3.11279Z" fill="black"/>
<path d="M98.599 3.26855H119.667V104.954H98.599V3.26855Z" fill="black"/>
<path d="M520.889 3.26855H580.635V20.4983H541.943V43.0685H579.21V60.2901H541.943V87.7383H580.635V104.954H520.889V3.26855Z" fill="black"/>
<path d="M639.446 62.1167C655.314 59.0757 664.045 48.8593 664.045 33.2911C664.045 14.2531 650.121 3.26953 625.824 3.26953H594.589V104.955H615.631V64.1044H618.38L647.539 104.954H673.446L639.446 62.1167ZM621.787 50.0798H615.631V19.2849H622.119C635.238 19.2849 642.369 24.4634 642.369 34.3588C642.371 44.5803 635.24 50.0798 621.787 50.0798Z" fill="black"/>
<path d="M30.9221 3.26855H0V104.954H30.761C47.1159 104.954 58.9303 101.32 69.2974 93.2152C81.6195 83.6152 88.9046 69.1465 88.9046 54.1824C88.9057 24.1732 65.0882 3.26855 30.9221 3.26855ZM55.5344 79.6573C48.9149 85.2819 40.3169 87.7383 26.7056 87.7383H21.0503V20.4983H26.7046C40.3159 20.4983 48.5744 22.7937 55.5333 28.7219C62.8195 34.8306 67.2021 44.2942 67.2021 54.0368C67.2031 63.7937 62.8195 73.5486 55.5344 79.6573Z" fill="black"/>
</svg>
