<svg width="636" height="304" viewBox="0 0 636 304" fill="none" xmlns="http://www.w3.org/2000/svg">
<path d="M92.649 302.725V266.587C92.649 252.717 84.1804 243.656 69.6399 243.656C62.3963 243.656 54.5135 246.047 49.0542 253.913C44.7932 247.27 38.7746 243.656 29.6935 243.656C23.6216 243.656 17.5764 245.463 12.7296 252.106V244.878H0V302.725H12.7296V270.785C12.7296 260.529 18.1623 255.719 26.6576 255.719C35.1262 255.719 39.3872 261.167 39.3872 270.812V302.725H52.0901V270.785C52.0901 260.529 58.2152 255.719 66.0447 255.719C74.5666 255.719 78.7743 261.167 78.7743 270.812V302.725H92.7023H92.649ZM281.063 244.878H260.451V227.394H247.721V244.878H236.216V256.304H247.721V282.822C247.721 296.108 253.18 303.947 267.694 303.947C273.18 303.947 279.225 302.14 283.46 299.695L279.838 288.881C276.216 291.272 271.955 291.91 268.919 291.91C262.874 291.91 260.451 288.27 260.451 282.264V256.331H281.063V244.878ZM388.865 243.656C381.595 243.656 376.774 247.27 373.739 252.106V244.878H361.009V302.725H373.739V270.174C373.739 260.529 377.999 255.108 385.856 255.108C388.252 255.108 391.288 255.719 393.712 256.331L397.36 244.267C394.963 243.656 391.315 243.656 388.865 243.656ZM225.937 249.688C219.865 245.436 211.396 243.656 202.289 243.656C187.748 243.656 178.054 250.883 178.054 262.336C178.054 271.981 185.351 277.402 198.028 279.209L204.153 279.82C210.81 281.016 214.406 282.822 214.406 285.852C214.406 290.103 209.559 293.079 201.09 293.079C192.568 293.079 185.911 290.077 181.703 287.047L175.631 296.693C182.289 301.476 191.343 303.92 200.451 303.92C217.415 303.92 227.082 296.082 227.082 285.24C227.082 275.01 219.226 269.563 207.109 267.756L201.064 267.172C195.604 266.561 191.37 265.365 191.37 261.751C191.37 257.5 195.631 255.108 202.289 255.108C209.532 255.108 216.802 258.137 220.451 259.944L225.937 249.688ZM563.937 243.656C556.666 243.656 551.82 247.27 548.81 252.106V244.878H536.081V302.725H548.81V270.174C548.81 260.529 553.071 255.108 560.927 255.108C563.324 255.108 566.333 255.719 568.757 256.331L572.405 244.267C570.009 243.656 566.36 243.656 563.937 243.656ZM401.595 273.788C401.595 291.325 413.712 303.947 432.486 303.947C441.008 303.947 447.027 302.14 453.099 297.304L447.027 287.074C442.18 290.688 437.333 292.495 431.847 292.495C421.594 292.495 414.324 285.267 414.324 273.815C414.324 263 421.594 255.746 431.9 255.161C437.333 255.161 442.18 256.968 447.027 260.582L453.099 250.352C447.027 245.516 440.982 243.709 432.486 243.709C413.712 243.709 401.595 256.384 401.595 273.841V273.788ZM519.117 273.788V244.905H506.334V252.132C502.126 246.712 496.081 243.682 488.225 243.682C471.847 243.682 459.117 256.357 459.117 273.815C459.117 291.352 471.847 303.973 488.198 303.973C496.64 303.973 502.712 300.971 506.307 295.55V302.778H519.09V273.815L519.117 273.788ZM472.433 273.788C472.433 263.585 479.091 255.135 490.009 255.135C500.315 255.135 507.586 262.973 507.586 273.815C507.586 284.098 500.315 292.521 490.009 292.521C479.091 291.937 472.433 284.098 472.433 273.841V273.788ZM320.37 243.682C303.433 243.682 291.342 255.746 291.342 273.815C291.342 291.936 303.433 303.973 321.009 303.973C329.531 303.973 338 301.582 344.658 296.135L338.586 287.1C333.792 290.714 327.667 293.132 321.648 293.132C313.766 293.132 305.883 289.518 304.072 279.262H347.081V274.479C347.667 255.772 336.748 243.709 320.397 243.709L320.37 243.682ZM320.37 254.577C328.28 254.577 333.739 259.36 334.937 268.394H304.658C305.856 260.555 311.316 254.577 320.37 254.577ZM636 273.815V222H623.217V252.159C619.009 246.738 612.964 243.709 605.108 243.709C588.73 243.709 576.001 256.384 576.001 273.841C576.001 291.379 588.73 304 605.082 304C613.55 304 619.595 300.997 623.191 295.577V302.804H635.973V273.841L636 273.815ZM589.343 273.815C589.343 263.611 596 255.161 606.919 255.161C617.199 255.161 624.495 263 624.495 273.841C624.495 284.124 617.199 292.548 606.919 292.548C596 291.963 589.343 284.124 589.343 273.868V273.815ZM164.047 273.815V244.931H151.37V252.159C147.109 246.738 141.064 243.709 133.181 243.709C116.803 243.709 104.074 256.384 104.074 273.841C104.074 291.379 116.803 304 133.155 304C141.623 304 147.669 300.997 151.317 295.577V302.804H164.02V273.841L164.047 273.815ZM116.83 273.815C116.83 263.611 123.488 255.161 134.406 255.161C144.686 255.161 151.983 263 151.983 273.841C151.983 284.124 144.686 292.548 134.406 292.548C123.488 291.963 116.83 284.124 116.83 273.868V273.815Z" fill="black"/>
<path d="M361.095 22.2041H269.981V185.433H361.095" fill="#FF5F00"/>
<path d="M275.729 103.845C275.729 70.6554 291.37 41.2549 315.366 22.2056C297.69 8.38282 275.436 0.0153809 251.148 0.0153809C193.568 0.0153809 147 46.4305 147 103.833C147 161.184 193.568 207.625 251.148 207.625C275.436 207.625 297.69 199.27 315.366 185.422C291.332 166.678 275.716 136.972 275.716 103.82L275.729 103.845Z" fill="#EB001B"/>
<path d="M484 103.843C484 161.194 437.407 207.635 379.852 207.635C355.564 207.635 333.284 199.28 315.634 185.432C339.922 166.408 355.258 136.982 355.258 103.83C355.258 70.6401 339.643 41.2395 315.634 22.1903C333.284 8.36744 355.564 0 379.852 0C437.407 0 484 46.7203 484 103.817V103.843Z" fill="#F79E1B"/>
</svg>
