<svg width="683" height="183" viewBox="0 0 683 183" fill="none" xmlns="http://www.w3.org/2000/svg">
<path d="M115.588 8.83311C107.029 2.94912 95.8605 0 82.082 0H28.7389C24.515 0 22.1814 2.11249 21.7381 6.33236L0.0680185 142.359C-0.157191 143.695 0.177057 144.917 1.0677 146.027C1.95326 147.14 3.06708 147.694 4.40101 147.694H29.7386C34.1827 147.694 36.6253 145.586 37.0737 141.36L43.0739 104.689C43.293 102.912 44.0746 101.467 45.4085 100.354C46.7414 99.243 48.4086 98.5164 50.409 98.1832C52.4094 97.853 54.2956 97.6869 56.0769 97.6869C57.8531 97.6869 59.9636 97.799 62.4123 98.0202C64.855 98.2423 66.4121 98.3503 67.0796 98.3503C86.1928 98.3503 101.195 92.9647 112.088 82.1821C122.975 71.4036 128.425 56.4573 128.425 37.3399C128.425 24.2279 124.143 14.7263 115.588 8.83311ZM88.0842 49.6765C86.9694 57.457 84.0834 62.5665 79.4162 65.0122C74.7479 67.461 68.0803 68.6777 59.4133 68.6777L48.4106 69.0119L54.0796 33.3381C54.5219 30.8955 55.9658 29.6726 58.4126 29.6726H64.749C73.6351 29.6726 80.0847 30.9536 84.0854 33.5053C88.0842 36.0631 89.4181 41.4559 88.0842 49.6765Z" fill="#003087"/>
<path d="M678.526 0H653.856C651.406 0 649.963 1.22286 649.522 3.66755L627.85 142.359L627.516 143.025C627.516 144.142 627.961 145.193 628.852 146.194C629.737 147.192 630.852 147.693 632.184 147.693H654.191C658.407 147.693 660.742 145.585 661.193 141.359L682.863 4.99843V4.66724C682.862 1.55609 681.413 0 678.526 0Z" fill="#009CDE"/>
<path d="M380.47 53.6753C380.47 52.5666 380.023 51.5088 379.139 50.5101C378.248 49.5104 377.246 49.0081 376.138 49.0081H350.467C348.017 49.0081 346.017 50.1249 344.465 52.3414L309.126 104.354L294.458 54.3438C293.342 50.7894 290.898 49.0081 287.122 49.0081H262.115C261.001 49.0081 260.001 49.5094 259.117 50.5101C258.225 51.5088 257.783 52.5676 257.783 53.6753C257.783 54.1237 259.951 60.6772 264.284 73.346C268.617 86.0168 273.285 99.6863 278.286 114.358C283.288 129.025 285.897 136.808 286.121 137.692C267.894 162.587 258.783 175.923 258.783 177.698C258.783 180.591 260.227 182.034 263.117 182.034H288.789C291.233 182.034 293.233 180.925 294.79 178.701L379.806 56.0089C380.248 55.5666 380.47 54.7922 380.47 53.6753Z" fill="#003087"/>
<path d="M619.515 49.008H594.176C591.063 49.008 589.178 52.6755 588.512 60.0106C582.727 51.1245 572.176 46.6733 556.837 46.6733C540.834 46.6733 527.217 52.6755 515.997 64.6779C504.771 76.6812 499.161 90.7971 499.161 107.02C499.161 120.136 502.994 130.582 510.661 138.358C518.329 146.143 528.608 150.027 541.503 150.027C547.947 150.027 554.503 148.691 561.171 146.026C567.84 143.36 573.058 139.805 576.843 135.358C576.843 135.581 576.617 136.58 576.175 138.357C575.727 140.138 575.508 141.474 575.508 142.358C575.508 145.918 576.949 147.692 579.843 147.692H602.849C607.066 147.692 609.515 145.584 610.18 141.358L623.851 54.3427C624.07 53.0088 623.736 51.7879 622.85 50.6751C621.958 49.5654 620.849 49.008 619.515 49.008ZM576.008 114.688C570.34 120.245 563.507 123.021 555.505 123.021C549.057 123.021 543.838 121.246 539.835 117.688C535.833 114.137 533.833 109.247 533.833 103.019C533.833 94.7999 536.611 87.85 542.169 82.1821C547.72 76.5141 554.615 73.6801 562.84 73.6801C569.057 73.6801 574.226 75.5144 578.342 79.181C582.451 82.8485 584.511 87.9071 584.511 94.3525C584.51 102.353 581.675 109.134 576.008 114.688Z" fill="#009CDE"/>
<path d="M240.779 49.008H215.442C212.325 49.008 210.44 52.6755 209.773 60.0106C203.772 51.1245 193.213 46.6733 178.1 46.6733C162.097 46.6733 148.481 52.6755 137.258 64.6779C126.032 76.6812 120.423 90.7971 120.423 107.02C120.423 120.136 124.257 130.582 131.926 138.358C139.594 146.143 149.871 150.027 162.764 150.027C168.984 150.027 175.434 148.691 182.1 146.026C188.768 143.36 194.103 139.805 198.104 135.358C197.212 138.025 196.77 140.359 196.77 142.358C196.77 145.918 198.214 147.692 201.104 147.692H224.108C228.328 147.692 230.775 145.584 231.443 141.358L245.111 54.3427C245.33 53.0088 244.997 51.7879 244.112 50.6751C243.222 49.5654 242.112 49.008 240.779 49.008ZM197.271 114.853C191.602 120.305 184.653 123.021 176.435 123.021C169.985 123.021 164.817 121.246 160.931 117.688C157.039 114.137 155.096 109.247 155.096 103.019C155.096 94.7999 157.873 87.85 163.432 82.1821C168.984 76.5141 175.875 73.6801 184.102 73.6801C190.322 73.6801 195.49 75.5144 199.606 79.181C203.714 82.8485 205.773 87.9071 205.773 94.3525C205.773 102.576 202.939 109.413 197.271 114.853Z" fill="#003087"/>
<path d="M494.324 8.83311C485.766 2.94912 474.6 0 460.819 0H407.809C403.361 0 400.916 2.11249 400.474 6.33236L378.804 142.358C378.579 143.694 378.912 144.916 379.804 146.026C380.686 147.139 381.803 147.693 383.137 147.693H410.474C413.141 147.693 414.918 146.25 415.809 143.36L421.811 104.688C422.031 102.911 422.81 101.466 424.145 100.353C425.479 99.242 427.144 98.5154 429.146 98.1822C431.146 97.852 433.032 97.6859 434.814 97.6859C436.59 97.6859 438.701 97.798 441.146 98.0191C443.591 98.2413 445.151 98.3493 445.814 98.3493C464.93 98.3493 479.93 92.9636 490.823 82.1811C501.714 71.4026 507.159 56.4563 507.159 37.3389C507.16 24.2279 502.879 14.7263 494.324 8.83311ZM460.152 63.6783C455.261 67.0116 447.926 68.6777 438.148 68.6777L427.479 69.0119L433.148 33.3381C433.588 30.8955 435.032 29.6726 437.481 29.6726H443.48C448.368 29.6726 452.258 29.8948 455.152 30.3381C458.037 30.7865 460.819 32.1713 463.486 34.505C466.155 36.8396 467.487 40.23 467.487 44.675C467.487 54.0095 465.039 60.3429 460.152 63.6783Z" fill="#009CDE"/>
</svg>
