<svg fill="none" xmlns="http://www.w3.org/2000/svg">
		<path d="M0 2C0 0.895431 0.895431 0 2 0H14C15.1046 0 16 0.895431 16 2V14C16 15.1046 15.1046 16 14 16H2C0.895431 16 0 15.1046 0 14V2Z"></path>
		<path fill-rule="evenodd" clip-rule="evenodd" d="M7.04331 2.76299L7.04801 2.76969L11.6074 9.30019L7.97548 14.5L2.17503 6.19181C1.23299 4.84249 1.56046 2.98531 2.90718 2.03955C4.24911 1.09716 6.10092 1.42106 7.04331 2.76299Z" fill="#0042E4"></path>
		<path d="M12.0948 6.03553C13.3473 6.03553 14.3626 5.02022 14.3626 3.76777C14.3626 2.51531 13.3473 1.5 12.0948 1.5C10.8424 1.5 9.82706 2.51531 9.82706 3.76777C9.82706 5.02022 10.8424 6.03553 12.0948 6.03553Z" fill="#FF4E61"></path>
		</svg>